# xmcd
#
# Track frame offsets:
#	150
#	17455
#	35170
#	58830
#	75337
#	105047
#	126597
#	139045
#	160092
#	178882
#	195047
#
# Disc length: 2811 seconds
#
# Revision: 2
# Processed by: cddbd v1.5.2PL0 Copyright (c) Steve Scherf et al.
# Submitted via: EasyCDDAExtractor 11.5.0.1
#
DISCID=830af90b
DTITLE=Midge Marsden - Burning Rain
DYEAR=1990
DGENRE=Blues
TTITLE0=Burning Rain
TTITLE1=Little Ray
TTITLE2=Elle
TTITLE3=Shufflin Sugar
TTITLE4=Muscles
TTITLE5=Struck Down By The Blues
TTITLE6=I Wanna Be loved
TTITLE7=Strangers Girl
TTITLE8=Nadine
TTITLE9=Daylight Robbery
TTITLE10=Another Man Done Gone
EXTD=
EXTT0=
EXTT1=
EXTT2=
EXTT3=
EXTT4=
EXTT5=
EXTT6=
EXTT7=
EXTT8=
EXTT9=
EXTT10=
PLAYORDER=
